<svg width="26" height="30" viewBox="0 0 26 30" fill="none" xmlns="http://www.w3.org/2000/svg">
<path d="M1 7.00002H3.66667M3.66667 7.00002H25M3.66667 7.00002V25.6667C3.66667 26.3739 3.94762 27.0522 4.44772 27.5523C4.94781 28.0524 5.62609 28.3334 6.33333 28.3334H19.6667C20.3739 28.3334 21.0522 28.0524 21.5523 27.5523C22.0524 27.0522 22.3333 26.3739 22.3333 25.6667V7.00002M7.66667 7.00002V4.33335C7.66667 3.62611 7.94762 2.94783 8.44772 2.44774C8.94781 1.94764 9.62609 1.66669 10.3333 1.66669H15.6667C16.3739 1.66669 17.0522 1.94764 17.5523 2.44774C18.0524 2.94783 18.3333 3.62611 18.3333 4.33335V7.00002M10.3333 13.6667V21.6667M15.6667 13.6667V21.6667" stroke="white" stroke-width="2" stroke-linecap="round" stroke-linejoin="round"/>
</svg>
