<svg width="240" height="200" viewBox="0 0 240 200" fill="none" xmlns="http://www.w3.org/2000/svg">
<g clip-path="url(#clip0_54_33)">
<path d="M19.0564 198.414C12.7761 195.042 13.0856 198.368 13.1229 134.657L13.1562 77.6367L9.38815 74.5364C7.10688 72.6594 4.67734 69.5084 3.23087 66.5506L0.841659 61.6652L0.585674 32.2957C0.367748 7.29431 0.517993 2.67292 1.59578 1.22357C2.61232 -0.14343 3.16408 -0.293137 4.39518 0.463996C5.81529 1.33736 5.95981 3.66321 6.35241 31.9618C6.77137 62.1595 6.7995 62.554 8.7604 65.7208C9.85164 67.4832 12.4269 70.0874 14.4831 71.5079L18.2218 74.0907V132.174C18.2218 196.803 17.9763 194.041 23.7201 194.041C25.2923 194.041 27.1783 193.439 27.911 192.703C28.6438 191.967 29.3312 191.297 29.4386 191.213C29.546 191.13 29.8321 168.077 30.0744 139.984L30.515 88.9066H32.6346H34.7541L34.9726 140.549L35.1911 192.192L32.8926 194.935C30.5698 197.707 26.333 200 23.5346 200C22.6963 200 20.6811 199.286 19.0564 198.414ZM107.242 199.14C93.4078 196.913 73.9766 188.785 63.615 180.892C57.6532 176.35 49.2316 168.298 44.9318 163.029C42.1518 159.623 41.8912 158.86 42.1258 154.819L42.3844 150.363L46.0032 155.232C47.9935 157.91 49.3652 160.518 49.0515 161.028C48.7377 161.538 48.8618 161.719 49.3272 161.43C49.7926 161.141 52.4268 163.254 55.1809 166.125C62.2399 173.484 72.4623 180.919 81.3837 185.182C127.659 207.295 182.278 188.995 206.017 143.424L209.827 136.112V142.312C209.827 148.421 209.758 148.616 205.108 155.589C200.358 162.713 189.69 174.203 182.791 179.624C172.989 187.327 158.241 194.279 144.698 197.581C136.45 199.591 115.47 200.465 107.242 199.14ZM222.968 198.464C221.569 197.57 219.662 195.978 218.729 194.925C217.082 193.066 217.033 191.806 217.033 150.749V108.486L219.003 108.206C220.351 108.014 221.094 108.417 221.36 109.483C221.574 110.339 221.832 128.909 221.934 150.749C222.111 188.458 222.201 190.548 223.735 192.249C225.958 194.715 230.493 194.662 232.246 192.149C233.421 190.465 233.566 180.119 233.566 97.9748V5.69284L230.955 6.21722C224.02 7.60979 216.509 13.869 212.689 21.4373C208.627 29.4863 208.162 34.3566 208.146 69.0098C208.133 96.4317 207.948 101.194 206.86 102.102C205.845 102.947 205.331 102.947 204.316 102.102C202.424 100.525 202.43 35.8744 204.323 28.5764C208.045 14.2254 217.281 4.28397 230.114 0.814239C234.703 -0.426575 237.305 0.687127 238.612 4.45216C239.21 6.17418 239.5 36.7529 239.5 97.9549C239.5 179.657 239.361 189.248 238.132 192.332C235.595 198.699 228.087 201.735 222.968 198.464ZM107.242 165.5C95.3599 162.551 83.0891 155.564 74.7347 146.991C50.4258 122.046 49.0699 83.1688 71.5761 56.4317C84.4998 41.0785 101.837 33.1311 122.343 33.1596C141.717 33.1866 155.841 39.1419 169.556 53.067C180.946 64.631 186.573 76.18 188.725 92.4051C191.845 115.933 180.329 141.465 160.5 154.986C153.341 159.868 144.063 164.013 136.916 165.523C129.477 167.094 113.613 167.082 107.242 165.5ZM139.883 159.148C160.053 152.838 173.93 138.933 181.096 117.85C182.877 112.609 183.115 110.405 183.075 99.5477C183.033 88.3587 182.817 86.617 180.759 80.9292C179.511 77.478 177.169 72.3065 175.555 69.4368C154.075 31.2394 100.258 27.58 73.7819 62.5165C64.737 74.4515 61.2394 84.8968 61.2394 99.9733C61.2394 122.776 71.4642 140.696 91.7743 153.488C104.267 161.356 125.018 163.797 139.883 159.148ZM31.1085 77.2439C29.2636 75.3913 30.0941 73.6142 33.8835 71.306C36.2171 69.8846 38.3577 67.6451 39.5794 65.347C41.5015 61.7312 41.5411 61.1286 41.7887 31.728C41.9974 6.93392 42.2504 1.61605 43.2615 0.77349C43.933 0.213955 45.0595 -0.0214574 45.7648 0.250336C46.8768 0.678785 47.0462 4.79516 47.0391 31.2049C47.0307 61.3797 47.0122 61.7051 45.0413 65.9217C42.9097 70.4822 39.6949 74.1473 35.6019 76.6832C32.5933 78.5473 32.4272 78.568 31.1085 77.2439ZM15.3958 52.1592C15.0849 51.8471 14.8306 40.151 14.8306 26.1681C14.8306 4.25951 15.0079 0.676179 16.1131 0.250336C16.8185 -0.0214446 17.963 0.22909 18.6565 0.806924C19.72 1.69315 19.9174 5.75968 19.9174 26.7755C19.9174 48.7119 19.757 51.755 18.5764 52.2099C16.8524 52.8742 16.0959 52.8621 15.3958 52.1592ZM28.9965 52.1952C28.666 51.8633 28.3955 40.2041 28.3955 26.286C28.3955 3.70096 28.5438 0.92308 29.7747 0.448802C33.3207 -0.917533 33.5188 0.586186 33.2829 27.0899C33.0635 51.7368 33.0197 52.3067 31.328 52.5499C30.3762 52.6866 29.327 52.5274 28.9965 52.1952ZM188.632 33.1091C168.454 12.7422 141.814 3.11563 113.404 5.92523C92.2935 8.01299 73.6706 16.404 58.1842 30.8061C56.2962 32.5618 54.6059 33.9984 54.428 33.9984C54.2501 33.9984 54.0515 32.5822 53.9867 30.8514C53.843 27.0112 54.7797 25.8815 63.5597 19.3064C91.2757 -1.44931 128.883 -5.82982 161.343 7.91654C168.642 11.0072 179.454 17.3815 183.827 21.1718C185.214 22.3738 188.604 25.47 191.36 28.0523C196.197 32.5838 196.362 32.8802 196.105 36.5652L195.838 40.3831L188.632 33.1091Z" fill="black"/>
</g>
<defs>
<clipPath id="clip0_54_33">
<rect width="239" height="200" fill="white" transform="translate(0.5)"/>
</clipPath>
</defs>
</svg>
