<svg width="30" height="30" viewBox="0 0 30 30" fill="white" xmlns="http://www.w3.org/2000/svg">
<path d="M21.6667 3C22.0168 2.64981 22.4326 2.37202 22.8901 2.1825C23.3477 1.99298 23.8381 1.89543 24.3333 1.89543C24.8286 1.89543 25.319 1.99298 25.7765 2.1825C26.2341 2.37202 26.6498 2.64981 27 3C27.3502 3.35019 27.628 3.76593 27.8175 4.22348C28.007 4.68103 28.1046 5.17142 28.1046 5.66667C28.1046 6.16191 28.007 6.65231 27.8175 7.10986C27.628 7.5674 27.3502 7.98314 27 8.33333L8.99999 26.3333L1.66666 28.3333L3.66666 21L21.6667 3Z" stroke="white" stroke-width="2" stroke-linecap="round" stroke-linejoin="round"/>
</svg>
