<svg width="156" height="200" viewBox="0 0 156 200" fill="none" xmlns="http://www.w3.org/2000/svg">
<g clip-path="url(#clip0_54_40)">
<path d="M2.23227 199.547C0.884624 199.009 0.510825 198.414 0.500004 196.79C0.495115 196.077 4.77453 161.785 10.0095 120.584C17.723 59.8778 19.6738 45.4698 20.298 44.595L21.0684 43.5156L31.432 43.4001L41.7957 43.2845L42.0063 33.4696C42.1662 26.025 42.3947 23.0291 42.9529 21.0641C45.4775 12.1774 52.3857 4.74683 61.0517 1.59693C66.086 -0.232902 73.3623 -0.52558 78.3215 0.902298C79.1751 1.14807 80.3482 1.07364 81.7708 0.683452C82.9566 0.358259 85.867 0.0715585 88.2384 0.0463628C101.578 -0.095281 112.656 8.37371 116.295 21.4959C116.826 23.4081 117.07 26.6018 117.23 33.6931L117.445 43.2997H128.125C137.706 43.2997 138.902 43.3784 139.749 44.0651C140.657 44.801 140.987 47.7726 148.31 121.134C154.048 178.605 155.811 197.623 155.456 198.193C154.286 200.069 156.552 200.016 78.1059 199.994C29.9783 199.981 2.91791 199.821 2.23227 199.547ZM111.306 192.796C111.306 192.143 113.828 159.745 116.91 120.8C119.993 81.8557 122.515 49.7491 122.516 49.4523C122.516 49.0341 119.95 48.9126 111.121 48.9126H99.7265L99.5877 55.4281C99.4545 61.6734 99.4066 61.9778 98.4309 62.768C97.0635 63.8754 95.9579 63.8059 94.6864 62.5326C93.6597 61.5046 93.628 61.2848 93.628 55.1927V48.9126H70.8071H47.9862L47.8474 55.4281C47.7142 61.6734 47.6663 61.9778 46.6906 62.768C45.3232 63.8754 44.2176 63.8059 42.946 62.5326C41.9194 61.5046 41.8877 61.2848 41.8877 55.1927V48.9126H33.4881C25.1263 48.9126 25.0876 48.9175 24.881 49.884C24.7669 50.4184 20.6781 82.4278 15.795 121.016C10.9118 159.605 6.80836 191.808 6.67617 192.58L6.43581 193.983H58.8709H111.306L111.306 192.796ZM142.975 193.608C141.33 192.103 126.603 182.383 126.362 182.644C126.194 182.825 124.487 185.451 122.568 188.478L119.08 193.983H131.232C138.132 193.983 143.208 193.821 142.975 193.608ZM149.249 189.435C149.249 187.746 135.47 50.0667 135.238 49.4333C135.09 49.0295 134.164 48.9097 131.901 49.0015L128.768 49.1284L128.659 112.831L128.55 176.534L138.576 183.504C144.09 187.338 148.748 190.487 148.926 190.502C149.103 190.516 149.249 190.037 149.249 189.435ZM122.948 150.284C122.948 135.532 122.841 123.569 122.711 123.7C122.492 123.919 117.779 181.634 117.782 184.053C117.783 184.879 118.39 184.189 120.366 181.118L122.948 177.104V150.284ZM59.6666 33.4773C59.8549 24.3449 59.9486 23.4121 60.9999 20.2007C62.4976 15.6253 64.7947 11.8145 68.0686 8.47377C70.7143 5.77408 70.7337 5.73679 69.4911 5.73679C60.5382 5.73679 50.9988 13.5266 48.5842 22.8092C48.0939 24.6944 47.924 27.6563 47.924 34.3235V43.2998H53.694H59.4641L59.6666 33.4773ZM93.5274 33.4773C93.3737 24.6609 93.2585 23.3894 92.4018 21.0642C90.5752 16.1063 86.8223 11.5894 82.2114 8.79906C79.8592 7.37565 79.7356 7.34936 78.4042 7.98919C75.2714 9.49461 71.6407 12.7348 69.5068 15.9296C66.135 20.9777 65.8904 22.1064 65.7044 33.4773L65.5437 43.2998H79.6212H93.6986L93.5274 33.4773ZM111.219 33.4773C111.077 24.6892 110.962 23.3888 110.123 21.1297C106.988 12.6849 99.4786 6.74924 90.8254 5.87529L88.2384 5.61399L90.9756 8.37387C95.6105 13.0473 98.3824 18.7297 99.236 25.3082C99.457 27.0109 99.6437 31.7556 99.651 35.8519L99.6641 43.2998H105.52H111.376L111.219 33.4773Z" fill="white"/>
</g>
<defs>
<clipPath id="clip0_54_40">
<rect width="155" height="200" fill="white" transform="translate(0.5)"/>
</clipPath>
</defs>
</svg>
